<mxfile host="app.diagrams.net" agent="Mozilla/5.0 (Windows NT 10.0; Win64; x64) AppleWebKit/537.36 (KHTML, like Gecko) Chrome/138.0.0.0 Safari/537.36" version="27.2.0">
  <diagram name="Page-1" id="-YvidKBOBKAY0JY7CEEz">
    <mxGraphModel dx="2143" dy="869" grid="1" gridSize="10" guides="1" tooltips="1" connect="1" arrows="1" fold="1" page="1" pageScale="1" pageWidth="850" pageHeight="1100" math="0" shadow="0">
      <root>
        <mxCell id="0" />
        <mxCell id="1" parent="0" />
        <mxCell id="vxCvg0W02iY0pCLuE5ma-29" value="" style="edgeStyle=orthogonalEdgeStyle;rounded=0;orthogonalLoop=1;jettySize=auto;html=1;" edge="1" parent="1" source="vxCvg0W02iY0pCLuE5ma-27" target="vxCvg0W02iY0pCLuE5ma-28">
          <mxGeometry relative="1" as="geometry" />
        </mxCell>
        <mxCell id="vxCvg0W02iY0pCLuE5ma-27" value="START" style="ellipse;whiteSpace=wrap;html=1;" vertex="1" parent="1">
          <mxGeometry x="365" y="40" width="120" height="80" as="geometry" />
        </mxCell>
        <mxCell id="vxCvg0W02iY0pCLuE5ma-31" value="" style="edgeStyle=orthogonalEdgeStyle;rounded=0;orthogonalLoop=1;jettySize=auto;html=1;" edge="1" parent="1" source="vxCvg0W02iY0pCLuE5ma-28" target="vxCvg0W02iY0pCLuE5ma-30">
          <mxGeometry relative="1" as="geometry" />
        </mxCell>
        <mxCell id="vxCvg0W02iY0pCLuE5ma-28" value="REGISTRATION" style="whiteSpace=wrap;html=1;" vertex="1" parent="1">
          <mxGeometry x="365" y="150" width="120" height="60" as="geometry" />
        </mxCell>
        <mxCell id="vxCvg0W02iY0pCLuE5ma-33" value="" style="edgeStyle=orthogonalEdgeStyle;rounded=0;orthogonalLoop=1;jettySize=auto;html=1;" edge="1" parent="1" source="vxCvg0W02iY0pCLuE5ma-30" target="vxCvg0W02iY0pCLuE5ma-32">
          <mxGeometry relative="1" as="geometry" />
        </mxCell>
        <mxCell id="vxCvg0W02iY0pCLuE5ma-30" value="SELECT PREFERRED SCHOOLS" style="whiteSpace=wrap;html=1;" vertex="1" parent="1">
          <mxGeometry x="365" y="240" width="120" height="60" as="geometry" />
        </mxCell>
        <mxCell id="vxCvg0W02iY0pCLuE5ma-35" value="" style="edgeStyle=orthogonalEdgeStyle;rounded=0;orthogonalLoop=1;jettySize=auto;html=1;" edge="1" parent="1" source="vxCvg0W02iY0pCLuE5ma-32" target="vxCvg0W02iY0pCLuE5ma-34">
          <mxGeometry relative="1" as="geometry" />
        </mxCell>
        <mxCell id="vxCvg0W02iY0pCLuE5ma-32" value="FETCH STUDENT RESULTS" style="whiteSpace=wrap;html=1;" vertex="1" parent="1">
          <mxGeometry x="365" y="340" width="120" height="60" as="geometry" />
        </mxCell>
        <mxCell id="vxCvg0W02iY0pCLuE5ma-37" value="" style="edgeStyle=orthogonalEdgeStyle;rounded=0;orthogonalLoop=1;jettySize=auto;html=1;" edge="1" parent="1" source="vxCvg0W02iY0pCLuE5ma-34" target="vxCvg0W02iY0pCLuE5ma-36">
          <mxGeometry relative="1" as="geometry" />
        </mxCell>
        <mxCell id="vxCvg0W02iY0pCLuE5ma-34" value="RUN PLACEMENT ALGORITHM" style="whiteSpace=wrap;html=1;" vertex="1" parent="1">
          <mxGeometry x="365" y="430" width="120" height="60" as="geometry" />
        </mxCell>
        <mxCell id="vxCvg0W02iY0pCLuE5ma-40" value="YES" style="edgeStyle=orthogonalEdgeStyle;rounded=0;orthogonalLoop=1;jettySize=auto;html=1;" edge="1" parent="1" source="vxCvg0W02iY0pCLuE5ma-36" target="vxCvg0W02iY0pCLuE5ma-42">
          <mxGeometry relative="1" as="geometry">
            <mxPoint x="290" y="870" as="targetPoint" />
          </mxGeometry>
        </mxCell>
        <mxCell id="vxCvg0W02iY0pCLuE5ma-41" value="NO" style="edgeStyle=orthogonalEdgeStyle;rounded=0;orthogonalLoop=1;jettySize=auto;html=1;" edge="1" parent="1" source="vxCvg0W02iY0pCLuE5ma-36" target="vxCvg0W02iY0pCLuE5ma-46">
          <mxGeometry relative="1" as="geometry">
            <mxPoint x="560" y="620" as="targetPoint" />
          </mxGeometry>
        </mxCell>
        <mxCell id="vxCvg0W02iY0pCLuE5ma-36" value="IS SCHOOL ASSIGNED?" style="rhombus;whiteSpace=wrap;html=1;" vertex="1" parent="1">
          <mxGeometry x="360" y="520" width="130" height="80" as="geometry" />
        </mxCell>
        <mxCell id="vxCvg0W02iY0pCLuE5ma-43" style="edgeStyle=orthogonalEdgeStyle;rounded=0;orthogonalLoop=1;jettySize=auto;html=1;" edge="1" parent="1" source="vxCvg0W02iY0pCLuE5ma-42" target="vxCvg0W02iY0pCLuE5ma-57">
          <mxGeometry relative="1" as="geometry">
            <mxPoint x="250" y="670" as="targetPoint" />
          </mxGeometry>
        </mxCell>
        <mxCell id="vxCvg0W02iY0pCLuE5ma-42" value="NOTIFY STUDENT" style="rounded=0;whiteSpace=wrap;html=1;" vertex="1" parent="1">
          <mxGeometry x="190" y="580" width="120" height="60" as="geometry" />
        </mxCell>
        <mxCell id="vxCvg0W02iY0pCLuE5ma-48" value="YES" style="edgeStyle=orthogonalEdgeStyle;rounded=0;orthogonalLoop=1;jettySize=auto;html=1;" edge="1" parent="1" source="vxCvg0W02iY0pCLuE5ma-57" target="vxCvg0W02iY0pCLuE5ma-47">
          <mxGeometry relative="1" as="geometry">
            <mxPoint x="250" y="730" as="sourcePoint" />
          </mxGeometry>
        </mxCell>
        <mxCell id="vxCvg0W02iY0pCLuE5ma-61" value="" style="edgeStyle=orthogonalEdgeStyle;rounded=0;orthogonalLoop=1;jettySize=auto;html=1;" edge="1" parent="1" source="vxCvg0W02iY0pCLuE5ma-46" target="vxCvg0W02iY0pCLuE5ma-60">
          <mxGeometry relative="1" as="geometry" />
        </mxCell>
        <mxCell id="vxCvg0W02iY0pCLuE5ma-46" value="NOTIFY ADMIN" style="rounded=0;whiteSpace=wrap;html=1;" vertex="1" parent="1">
          <mxGeometry x="560" y="580" width="120" height="60" as="geometry" />
        </mxCell>
        <mxCell id="vxCvg0W02iY0pCLuE5ma-50" value="NO" style="edgeStyle=orthogonalEdgeStyle;rounded=0;orthogonalLoop=1;jettySize=auto;html=1;" edge="1" parent="1" source="vxCvg0W02iY0pCLuE5ma-47" target="vxCvg0W02iY0pCLuE5ma-51">
          <mxGeometry relative="1" as="geometry">
            <mxPoint x="450" y="980" as="targetPoint" />
          </mxGeometry>
        </mxCell>
        <mxCell id="vxCvg0W02iY0pCLuE5ma-54" value="YES" style="edgeStyle=orthogonalEdgeStyle;rounded=0;orthogonalLoop=1;jettySize=auto;html=1;" edge="1" parent="1" source="vxCvg0W02iY0pCLuE5ma-47" target="vxCvg0W02iY0pCLuE5ma-53">
          <mxGeometry relative="1" as="geometry" />
        </mxCell>
        <mxCell id="vxCvg0W02iY0pCLuE5ma-47" value="ACCEPTED?" style="rhombus;whiteSpace=wrap;html=1;rounded=0;" vertex="1" parent="1">
          <mxGeometry x="190" y="820" width="120" height="80" as="geometry" />
        </mxCell>
        <mxCell id="vxCvg0W02iY0pCLuE5ma-51" value="END" style="rounded=0;whiteSpace=wrap;html=1;" vertex="1" parent="1">
          <mxGeometry x="390" y="950" width="120" height="60" as="geometry" />
        </mxCell>
        <mxCell id="vxCvg0W02iY0pCLuE5ma-53" value="NOTIFY FINAL PLACEMENT" style="whiteSpace=wrap;html=1;rounded=0;" vertex="1" parent="1">
          <mxGeometry x="50" y="940" width="120" height="60" as="geometry" />
        </mxCell>
        <mxCell id="vxCvg0W02iY0pCLuE5ma-55" style="edgeStyle=orthogonalEdgeStyle;rounded=0;orthogonalLoop=1;jettySize=auto;html=1;entryX=0.001;entryY=0.348;entryDx=0;entryDy=0;entryPerimeter=0;" edge="1" parent="1" source="vxCvg0W02iY0pCLuE5ma-53" target="vxCvg0W02iY0pCLuE5ma-51">
          <mxGeometry relative="1" as="geometry" />
        </mxCell>
        <mxCell id="vxCvg0W02iY0pCLuE5ma-58" value="" style="edgeStyle=orthogonalEdgeStyle;rounded=0;orthogonalLoop=1;jettySize=auto;html=1;" edge="1" parent="1" target="vxCvg0W02iY0pCLuE5ma-57">
          <mxGeometry relative="1" as="geometry">
            <mxPoint x="250" y="730" as="sourcePoint" />
            <mxPoint x="250" y="760" as="targetPoint" />
          </mxGeometry>
        </mxCell>
        <mxCell id="vxCvg0W02iY0pCLuE5ma-57" value="APPEAL PLACEMENT?" style="rhombus;whiteSpace=wrap;html=1;" vertex="1" parent="1">
          <mxGeometry x="150" y="680" width="200" height="80" as="geometry" />
        </mxCell>
        <mxCell id="vxCvg0W02iY0pCLuE5ma-59" value="NO" style="edgeStyle=orthogonalEdgeStyle;rounded=0;orthogonalLoop=1;jettySize=auto;html=1;entryX=0.67;entryY=-0.061;entryDx=0;entryDy=0;entryPerimeter=0;" edge="1" parent="1" source="vxCvg0W02iY0pCLuE5ma-57" target="vxCvg0W02iY0pCLuE5ma-51">
          <mxGeometry relative="1" as="geometry" />
        </mxCell>
        <mxCell id="vxCvg0W02iY0pCLuE5ma-63" value="" style="edgeStyle=orthogonalEdgeStyle;rounded=0;orthogonalLoop=1;jettySize=auto;html=1;" edge="1" parent="1" source="vxCvg0W02iY0pCLuE5ma-60" target="vxCvg0W02iY0pCLuE5ma-62">
          <mxGeometry relative="1" as="geometry" />
        </mxCell>
        <mxCell id="vxCvg0W02iY0pCLuE5ma-60" value="ADMIN REVIEW" style="whiteSpace=wrap;html=1;rounded=0;" vertex="1" parent="1">
          <mxGeometry x="560" y="720" width="120" height="60" as="geometry" />
        </mxCell>
        <mxCell id="vxCvg0W02iY0pCLuE5ma-64" value="NO." style="edgeStyle=orthogonalEdgeStyle;rounded=0;orthogonalLoop=1;jettySize=auto;html=1;entryX=1;entryY=0.5;entryDx=0;entryDy=0;" edge="1" parent="1" source="vxCvg0W02iY0pCLuE5ma-62" target="vxCvg0W02iY0pCLuE5ma-34">
          <mxGeometry relative="1" as="geometry">
            <Array as="points">
              <mxPoint x="810" y="890" />
              <mxPoint x="810" y="460" />
            </Array>
          </mxGeometry>
        </mxCell>
        <mxCell id="vxCvg0W02iY0pCLuE5ma-67" value="YES" style="edgeStyle=orthogonalEdgeStyle;rounded=0;orthogonalLoop=1;jettySize=auto;html=1;" edge="1" parent="1" source="vxCvg0W02iY0pCLuE5ma-62" target="vxCvg0W02iY0pCLuE5ma-66">
          <mxGeometry relative="1" as="geometry" />
        </mxCell>
        <mxCell id="vxCvg0W02iY0pCLuE5ma-62" value="MANUAL PLACEMENT?" style="rhombus;whiteSpace=wrap;html=1;rounded=0;" vertex="1" parent="1">
          <mxGeometry x="580" y="850" width="220" height="80" as="geometry" />
        </mxCell>
        <mxCell id="vxCvg0W02iY0pCLuE5ma-68" style="edgeStyle=orthogonalEdgeStyle;rounded=0;orthogonalLoop=1;jettySize=auto;html=1;entryX=1;entryY=0.5;entryDx=0;entryDy=0;" edge="1" parent="1" source="vxCvg0W02iY0pCLuE5ma-66" target="vxCvg0W02iY0pCLuE5ma-51">
          <mxGeometry relative="1" as="geometry" />
        </mxCell>
        <mxCell id="vxCvg0W02iY0pCLuE5ma-66" value="NOTIFY FINAL PLACEMENT" style="whiteSpace=wrap;html=1;rounded=0;" vertex="1" parent="1">
          <mxGeometry x="630" y="1020" width="120" height="60" as="geometry" />
        </mxCell>
      </root>
    </mxGraphModel>
  </diagram>
</mxfile>
